<?xml version="1.0" encoding="UTF-8" standalone="no"?>
<svg
   width="98.561821"
   height="96.135605"
   viewBox="0 0 73.921363 72.101704"
   version="1.1"
   id="svg12"
   sodipodi:docname="Sena_Colombia_logo.svg"
   inkscape:version="0.92.4 (5da689c313, 2019-01-14)"
   inkscape:export-filename="sena_logo.svg"
   inkscape:export-xdpi="96"
   inkscape:export-ydpi="96"
   xmlns:inkscape="http://www.inkscape.org/namespaces/inkscape"
   xmlns:sodipodi="http://sodipodi.sourceforge.net/DTD/sodipodi-0.dtd"
   xmlns="http://www.w3.org/2000/svg"
   xmlns:svg="http://www.w3.org/2000/svg"
   xmlns:rdf="http://www.w3.org/1999/02/22-rdf-syntax-ns#"
   xmlns:cc="http://creativecommons.org/ns#"
   xmlns:dc="http://purl.org/dc/elements/1.1/">
  <metadata
     id="metadata18">
    <rdf:RDF>
      <cc:Work
         rdf:about="">
        <dc:format>image/svg+xml</dc:format>
        <dc:type
           rdf:resource="http://purl.org/dc/dcmitype/StillImage" />
      </cc:Work>
    </rdf:RDF>
  </metadata>
  <defs
     id="defs16" />
  <sodipodi:namedview
     pagecolor="#808080"
     bordercolor="#000000"
     borderopacity="0"
     objecttolerance="1"
     gridtolerance="1"
     guidetolerance="1"
     inkscape:pageopacity="0"
     inkscape:pageshadow="2"
     inkscape:window-width="1366"
     inkscape:window-height="705"
     id="namedview14"
     showgrid="false"
     units="px"
     inkscape:showpageshadow="false"
     inkscape:zoom="1"
     inkscape:cx="96.265104"
     inkscape:cy="56.747294"
     inkscape:window-x="-8"
     inkscape:window-y="-8"
     inkscape:window-maximized="1"
     inkscape:current-layer="svg12"
     inkscape:pagecheckerboard="true"
     inkscape:deskcolor="#2d2d2d"
     showborder="true"
     borderlayer="true"
     shape-rendering="auto">
    <inkscape:grid
       type="xygrid"
       id="grid58" />
  </sodipodi:namedview>
  <path
     style="fill:#000000;fill-opacity:1;stroke:none;stroke-width:0.153567px;stroke-linecap:butt;stroke-linejoin:miter;stroke-miterlimit:4;stroke-dasharray:none;stroke-opacity:1"
     d="M 37.213849,8.1810301e-6 A 7.9671225,7.9671225 0 0 0 29.257908,7.9744611 7.9671225,7.9671225 0 0 0 37.229142,15.934023 7.9671225,7.9671225 0 0 0 45.192325,7.9668141 v -0.01529 A 7.9671225,7.9671225 0 0 0 37.213849,8.1810301e-6 Z M 10.931519,18.402469 c -1.4000621,0.0084 -2.8234863,0.08599 -4.1584858,0.42261 -0.8795905,0.222694 -1.7315449,0.589234 -2.2841086,1.159562 -0.6939573,0.71469 -0.7830516,1.683375 -0.4447463,2.510708 0.3027378,0.728932 1.116412,1.275934 2.0228936,1.588612 1.9500175,0.668079 4.1174551,0.809612 6.1680961,1.230399 0.378207,0.09257 0.796556,0.194498 1.030766,0.452796 0.242885,0.306852 0.09871,0.729986 -0.299446,0.922901 -0.666204,0.338572 -1.517067,0.341289 -2.29256,0.329636 -0.7087091,-0.02913 -1.4860248,-0.08878 -2.0498635,-0.44354 -0.4146382,-0.255061 -0.487253,-0.689278 -0.3944343,-1.062161 l -4.5714374,4.13e-4 c -0.012144,0.695917 0.1230528,1.422157 0.6331108,2.019674 0.4259168,0.510124 1.1138561,0.869443 1.8546552,1.08631 1.1823274,0.347635 2.4633397,0.45247 3.7246061,0.484191 1.7114681,0.02913 3.4560861,-0.02172 5.0998951,-0.410133 0.979349,-0.238231 1.942311,-0.624278 2.569473,-1.250927 1.113798,-1.117998 0.851643,-2.888599 -0.629086,-3.758011 -0.737329,-0.429203 -1.620362,-0.695805 -2.52077,-0.867357 -1.316781,-0.273188 -2.657724,-0.472977 -3.991855,-0.693081 -0.4684211,-0.09127 -0.9637642,-0.17183 -1.3575868,-0.393229 -0.4120347,-0.221399 -0.4451988,-0.742521 -0.025355,-0.970393 0.5430207,-0.306203 1.2665148,-0.304035 1.9162378,-0.304681 0.68528,0.01165 1.430476,0.05483 1.994315,0.375921 0.31575,0.17673 0.442485,0.473443 0.445955,0.758283 l 4.344837,-0.01004 c -0.01734,-0.550925 -0.118731,-1.123123 -0.521227,-1.598289 -0.466686,-0.585218 -1.287477,-0.954052 -2.13237,-1.169625 -1.325457,-0.335334 -2.741002,-0.404061 -4.131515,-0.410535 z m 9.425817,0.328831 -0.0019,10.38132 12.670256,4.12e-4 -0.0011,-2.263178 h -8.021898 v -2.015248 h 7.154592 v -2.212465 h -7.154592 l -0.0016,-1.652607 7.734167,-0.002 -0.0044,-2.236213 z m 20.874932,0.0036 c 0,0 -3.91491,0.0012 -5.871868,0.0012 l -8.25e-4,10.382125 4.448274,4.12e-4 -0.0028,-6.986351 6.093235,6.980716 6.104905,0.0056 -0.0016,-10.382527 -4.451897,7.97e-4 0.0052,6.936443 z m 18.702713,0.01731 c 0,0 -4.795135,6.925757 -7.204899,10.383332 l 4.669239,4.12e-4 1.120118,-1.873169 h 7.21456 l 1.045256,1.873974 5.186434,-7.96e-4 -6.872848,-10.382125 z m 2.333214,2.478105 2.214074,3.76083 -4.576669,0.0065 z M -1.5049215e-8,32.049125 0.04024588,37.700832 21.159084,37.625562 c 1.07706,0.231841 1.7024,0.932964 1.482355,2.526807 L 9.6520119,62.890439 13.883347,66.84607 34.002009,32.049152 Z M 40.299303,32.097425 60.083499,66.746633 64.455704,62.816358 51.315344,40.137886 c -0.22011,-1.598763 0.405444,-2.307963 1.482759,-2.540491 l 21.123264,0.07527 -0.0056,-5.557928 z M 36.961489,37.831239 18.408497,69.67673 23.336535,72.078365 35.7166,51.15433 c 0.426522,-0.348923 0.858497,-0.534847 1.290772,-0.552212 0.455325,-0.01744 0.916655,0.151004 1.377709,0.511558 l 12.351487,20.988033 5.083398,-2.65158 z"
     id="path47-5"
     inkscape:connector-curvature="0" />
</svg>
